<svg id="Capa_1" enable-background="new 0 0 512 512" height="512" viewBox="0 0 512 512" width="512" xmlns="http://www.w3.org/2000/svg"><g><path d="m166 181c-90.981 0-166 74.019-166 165s75.019 166 166 166 165-75.019 165-166-74.019-165-165-165z" fill="#91e6a9"/><path d="m331 346c0-90.981-74.019-165-165-165v331c90.981 0 165-75.019 165-166z" fill="#26bfa6"/><path d="m211 294.789-45 45-15 15-30-30-21.211 21.211 51.211 51.211 15-15 66.211-66.211z" fill="#f0f7ff"/><path d="m211 294.789-45 45v42.422l66.211-66.211z" fill="#dfe7f4"/><path d="m346 0c-90.981 0-165 75.019-165 166s74.019 165 165 165 166-74.019 166-165-75.019-166-166-166z" fill="#ff80aa"/><path d="m512 166c0-90.981-75.019-166-166-166v331c90.981 0 166-74.019 166-165z" fill="#f37"/><path d="m397.211 136-21.211-21.211-30 30-30-30-21.211 21.211 30 30-30 30 21.211 21.211 30-30 30 30 21.211-21.211-30-30z" fill="#f0f7ff"/><path d="m397.211 196-30-30 30-30-21.211-21.211-30 30v42.422l30 30z" fill="#dfe7f4"/></g></svg>